<?xml version="1.0" encoding="UTF-8"?>
<svg width="412px" height="65px" viewBox="0 0 412 65" version="1.1" xmlns="http://www.w3.org/2000/svg" xmlns:xlink="http://www.w3.org/1999/xlink">
    <!-- Generator: Sketch 47.1 (45422) - http://www.bohemiancoding.com/sketch -->
    <title>Group</title>
    <desc>Created with Sketch.</desc>
    <defs></defs>
    <g id="Page-1" stroke="none" stroke-width="1" fill="none" fill-rule="evenodd">
        <g id="Group">
            <path d="M15.498,51.693 C18.9,51.693 21.924,50.622 23.94,49.362 L23.94,44.889 C22.932,45.141 21.672,45.33 20.349,45.33 C16.758,45.33 15.561,44.259 15.561,40.668 L15.561,21.768 L23.499,21.768 L23.499,16.35 L15.561,16.35 L15.561,8.223 L5.292,8.223 L5.292,16.224 L0.882,17.736 L0.882,21.768 L5.292,21.768 L5.292,42.369 C5.292,49.425 8.946,51.693 15.498,51.693 Z M24.749,51 L42.137,51 L42.137,46.842 L38.987,46.023 L38.987,23.91 C40.625,23.28 42.137,22.902 44.09,22.902 C47.177,22.902 48.689,23.847 48.689,27.123 L48.689,46.023 L45.476,46.842 L45.476,51 L62.801,51 L62.801,46.842 L59.021,45.834 L59.021,24.288 C59.021,18.051 55.493,15.594 50.138,15.594 C45.602,15.594 42.452,17.421 39.365,19.941 L38.987,19.941 L38.987,1.419 L38.042,0.915 L24.623,2.49 L24.623,6.774 L28.718,7.845 L28.718,45.834 L24.749,46.842 L24.749,51 Z M81.124,51.819 C69.343,51.819 63.484,45.015 63.484,33.486 C63.484,22.209 70.288,15.594 80.179,15.594 C90.385,15.594 95.173,21.264 95.173,34.935 L74.068,34.935 C74.572,42.81 78.037,45.33 83.833,45.33 C88.306,45.33 91.078,44.448 93.535,43.692 L93.535,48.165 C91.141,49.866 87.298,51.819 81.124,51.819 Z M73.942,30.336 L84.967,30.336 C84.967,22.713 83.014,20.76 79.927,20.76 C76.714,20.76 74.383,22.965 73.942,30.336 Z" id="thenewspaper" fill="#B3DDF3"></path>
            <path d="M96.1080001,51 L113.496,51 L113.496,46.842 L110.346,46.023 L110.346,23.91 C111.984,23.28 113.496,22.902 115.449,22.902 C118.536,22.902 120.048,23.91 120.048,27.186 L120.048,46.023 L116.835,46.842 L116.835,51 L134.16,51 L134.16,46.842 L130.38,45.834 L130.38,24.288 C130.38,18.114 126.852,15.594 121.497,15.594 C116.961,15.594 113.559,17.421 110.283,20.067 L109.905,20.067 L109.905,16.161 L109.023,15.657 L95.9820001,17.232 L95.9820001,21.579 L100.077,22.65 L100.077,45.834 L96.1080001,46.842 L96.1080001,51 Z M152.546,51.819 C140.765,51.819 134.906,45.015 134.906,33.486 C134.906,22.209 141.71,15.594 151.601,15.594 C161.807,15.594 166.595,21.264 166.595,34.935 L145.49,34.935 C145.994,42.81 149.459,45.33 155.255,45.33 C159.728,45.33 162.5,44.448 164.957,43.692 L164.957,48.165 C162.563,49.866 158.72,51.819 152.546,51.819 Z M145.364,30.336 L156.389,30.336 C156.389,22.713 154.436,20.76 151.349,20.76 C148.136,20.76 145.805,22.965 145.364,30.336 Z M177.736,51 L186.43,51 L190.651,36.825 C191.848,32.541 192.793,26.745 192.793,26.745 L192.982,26.745 C192.982,26.745 193.738,32.604 194.872,36.825 L198.778,51 L207.409,51 L215.599,21.39 L218.245,20.508 L218.245,16.35 L206.086,16.35 L206.086,20.508 L209.047,21.327 L206.905,29.832 C205.834,34.305 204.7,41.928 204.7,41.928 L204.448,41.928 C204.448,41.928 202.999,34.242 201.802,30.021 L197.959,16.35 L190.714,16.35 L186.934,30.021 C185.611,34.809 184.414,41.928 184.414,41.928 L184.162,41.928 C184.162,41.928 183.091,34.557 181.894,29.832 L179.752,21.327 L182.839,20.508 L182.839,16.35 L166.837,16.35 L166.837,20.508 L169.546,21.39 L177.736,51 Z M230.709,51.882 C241.419,51.882 245.892,46.905 245.892,39.912 C245.892,34.683 243.435,31.533 236.82,29.769 L232.788,28.824 C228.693,27.753 227.433,26.745 227.433,24.414 C227.433,21.957 229.449,20.634 232.662,20.634 C234.741,20.634 236.001,21.075 236.883,21.516 L237.828,25.485 L243.876,25.485 L243.876,17.295 C241.23,16.224 237.198,15.594 233.103,15.594 C223.212,15.594 218.802,20.445 218.802,26.871 C218.802,32.73 221.889,35.502 227.937,37.14 L231.654,38.085 C235.623,39.156 236.505,40.164 236.505,42.621 C236.505,45.204 234.615,46.716 231.15,46.716 C228.945,46.716 227.307,46.149 226.425,45.645 L225.102,41.109 L218.802,41.109 L219.306,49.74 C222.645,51.126 226.929,51.882 230.709,51.882 Z M246.701,64.671 L246.701,60.639 L250.607,59.694 L250.607,22.776 L246.575,21.705 L246.575,17.232 L259.553,15.657 L260.435,16.161 L260.435,19.878 L260.813,19.878 C262.955,17.673 266.231,15.531 270.767,15.531 C276.941,15.531 283.178,19.185 283.178,32.289 C283.178,46.212 275.996,51.441 266.42,51.441 C263.711,51.441 262.199,51.063 260.939,50.559 L260.939,59.757 L265.475,60.639 L265.475,64.671 L246.701,64.671 Z M265.475,46.212 C269.696,46.212 272.342,43.818 272.342,33.738 C272.342,25.296 270.137,22.461 265.979,22.461 C263.774,22.461 262.01,23.028 260.939,23.532 L260.939,44.952 C261.884,45.519 263.018,46.212 265.475,46.212 Z M294.382,51.882 C288.271,51.882 284.365,47.976 284.365,42.243 C284.365,35.439 288.901,33.549 296.209,32.037 L302.635,30.777 L302.635,28.446 C302.635,23.973 301.375,20.886 296.398,20.886 C295.705,20.886 294.949,20.949 294.256,21.012 L293.311,26.493 L286.822,26.493 L286.822,17.736 C289.909,16.665 294.949,15.594 300.556,15.594 C309.25,15.594 312.967,19.122 312.967,26.745 L312.967,44.07 C312.967,45.834 313.975,46.275 315.424,46.275 L316.684,46.275 L316.684,50.244 C315.613,50.937 312.841,51.756 310.132,51.756 C306.793,51.756 304.651,50.559 303.832,47.409 L303.454,47.409 C301.753,49.866 298.666,51.882 294.382,51.882 Z M298.666,46.212 C300.367,46.212 301.816,45.393 302.635,44.511 L302.635,35.25 L298.855,35.502 C295.768,35.691 294.571,37.266 294.571,40.731 C294.571,44.448 295.831,46.212 298.666,46.212 Z M316.674,64.671 L316.674,60.639 L320.58,59.694 L320.58,22.776 L316.548,21.705 L316.548,17.232 L329.526,15.657 L330.408,16.161 L330.408,19.878 L330.786,19.878 C332.928,17.673 336.204,15.531 340.74,15.531 C346.914,15.531 353.151,19.185 353.151,32.289 C353.151,46.212 345.969,51.441 336.393,51.441 C333.684,51.441 332.172,51.063 330.912,50.559 L330.912,59.757 L335.448,60.639 L335.448,64.671 L316.674,64.671 Z M335.448,46.212 C339.669,46.212 342.315,43.818 342.315,33.738 C342.315,25.296 340.11,22.461 335.952,22.461 C333.747,22.461 331.983,23.028 330.912,23.532 L330.912,44.952 C331.857,45.519 332.991,46.212 335.448,46.212 Z M372.23,51.819 C360.449,51.819 354.59,45.015 354.59,33.486 C354.59,22.209 361.394,15.594 371.285,15.594 C381.491,15.594 386.279,21.264 386.279,34.935 L365.174,34.935 C365.678,42.81 369.143,45.33 374.939,45.33 C379.412,45.33 382.184,44.448 384.641,43.692 L384.641,48.165 C382.247,49.866 378.404,51.819 372.23,51.819 Z M365.048,30.336 L376.073,30.336 C376.073,22.713 374.12,20.76 371.033,20.76 C367.82,20.76 365.489,22.965 365.048,30.336 Z M387.151,51 L406.303,51 L406.303,46.842 L401.326,45.834 L401.326,26.178 C403.342,25.107 405.862,24.792 409.012,24.792 C409.894,24.792 411.091,24.918 411.847,25.107 L411.847,15.972 C411.469,15.846 410.713,15.783 410.083,15.783 C406.366,15.783 403.279,18.303 401.326,22.272 L400.948,22.272 L400.948,16.161 L400.003,15.657 L386.962,17.232 L386.962,21.579 L391.057,22.65 L391.057,45.834 L387.151,46.842 L387.151,51 Z" id="thenewspaper" fill="#FFFFFF"></path>
        </g>
    </g>
</svg>